<svg width="318" height="189" viewBox="0 0 318 189" fill="none" xmlns="http://www.w3.org/2000/svg">
<rect x="48" y="5" width="269" height="1" fill="#DEE3E5"/>
<path d="M4.64347 1.27273V10H3.58665V2.38068H3.53551L1.40483 3.79545V2.72159L3.58665 1.27273H4.64347ZM11.3125 2.17614L11.858 2.61932L8.65341 9.11364L8.14205 8.61932L11.3125 2.17614ZM10 10.1193C9.35795 10.1193 8.81108 9.9446 8.35938 9.59517C7.90767 9.2429 7.5625 8.73295 7.32386 8.06534C7.08523 7.39489 6.96591 6.58523 6.96591 5.63636C6.96591 4.69318 7.08523 3.88778 7.32386 3.22017C7.56534 2.54972 7.91193 2.03835 8.36364 1.68608C8.81818 1.33097 9.36364 1.15341 10 1.15341C10.6364 1.15341 11.1804 1.33097 11.6321 1.68608C12.0866 2.03835 12.4332 2.54972 12.6719 3.22017C12.9134 3.88778 13.0341 4.69318 13.0341 5.63636C13.0341 6.58523 12.9148 7.39489 12.6761 8.06534C12.4375 8.73295 12.0923 9.2429 11.6406 9.59517C11.1889 9.9446 10.642 10.1193 10 10.1193ZM10 9.18182C10.6364 9.18182 11.1307 8.875 11.483 8.26136C11.8352 7.64773 12.0114 6.77273 12.0114 5.63636C12.0114 4.88068 11.9304 4.23722 11.7685 3.70597C11.6094 3.17472 11.3793 2.76989 11.0781 2.49148C10.7798 2.21307 10.4205 2.07386 10 2.07386C9.36932 2.07386 8.87642 2.38494 8.52131 3.0071C8.16619 3.62642 7.98864 4.50284 7.98864 5.63636C7.98864 6.39205 8.06818 7.03409 8.22727 7.5625C8.38636 8.09091 8.61506 8.4929 8.91335 8.76847C9.21449 9.04403 9.5767 9.18182 10 9.18182ZM18.8125 2.17614L19.358 2.61932L16.1534 9.11364L15.642 8.61932L18.8125 2.17614ZM17.5 10.1193C16.858 10.1193 16.3111 9.9446 15.8594 9.59517C15.4077 9.2429 15.0625 8.73295 14.8239 8.06534C14.5852 7.39489 14.4659 6.58523 14.4659 5.63636C14.4659 4.69318 14.5852 3.88778 14.8239 3.22017C15.0653 2.54972 15.4119 2.03835 15.8636 1.68608C16.3182 1.33097 16.8636 1.15341 17.5 1.15341C18.1364 1.15341 18.6804 1.33097 19.1321 1.68608C19.5866 2.03835 19.9332 2.54972 20.1719 3.22017C20.4134 3.88778 20.5341 4.69318 20.5341 5.63636C20.5341 6.58523 20.4148 7.39489 20.1761 8.06534C19.9375 8.73295 19.5923 9.2429 19.1406 9.59517C18.6889 9.9446 18.142 10.1193 17.5 10.1193ZM17.5 9.18182C18.1364 9.18182 18.6307 8.875 18.983 8.26136C19.3352 7.64773 19.5114 6.77273 19.5114 5.63636C19.5114 4.88068 19.4304 4.23722 19.2685 3.70597C19.1094 3.17472 18.8793 2.76989 18.5781 2.49148C18.2798 2.21307 17.9205 2.07386 17.5 2.07386C16.8693 2.07386 16.3764 2.38494 16.0213 3.0071C15.6662 3.62642 15.4886 4.50284 15.4886 5.63636C15.4886 6.39205 15.5682 7.03409 15.7273 7.5625C15.8864 8.09091 16.1151 8.4929 16.4134 8.76847C16.7145 9.04403 17.0767 9.18182 17.5 9.18182ZM26.6023 8.36364V7.90341C26.6023 7.58523 26.6676 7.29403 26.7983 7.02983C26.9318 6.76278 27.125 6.54972 27.3778 6.39062C27.6335 6.22869 27.9432 6.14773 28.3068 6.14773C28.6761 6.14773 28.9858 6.22869 29.2358 6.39062C29.4858 6.54972 29.6747 6.76278 29.8026 7.02983C29.9304 7.29403 29.9943 7.58523 29.9943 7.90341V8.36364C29.9943 8.68182 29.929 8.97443 29.7983 9.24148C29.6705 9.50568 29.4801 9.71875 29.2273 9.88068C28.9773 10.0398 28.6705 10.1193 28.3068 10.1193C27.9375 10.1193 27.6264 10.0398 27.3736 9.88068C27.1207 9.71875 26.929 9.50568 26.7983 9.24148C26.6676 8.97443 26.6023 8.68182 26.6023 8.36364ZM27.4716 7.90341V8.36364C27.4716 8.62784 27.5341 8.86506 27.6591 9.07528C27.7841 9.28267 28 9.38636 28.3068 9.38636C28.6051 9.38636 28.8153 9.28267 28.9375 9.07528C29.0625 8.86506 29.125 8.62784 29.125 8.36364V7.90341C29.125 7.6392 29.0653 7.40341 28.946 7.19602C28.8267 6.9858 28.6136 6.88068 28.3068 6.88068C28.0085 6.88068 27.794 6.9858 27.6634 7.19602C27.5355 7.40341 27.4716 7.6392 27.4716 7.90341ZM22.2557 3.36932V2.90909C22.2557 2.59091 22.321 2.29972 22.4517 2.03551C22.5852 1.76847 22.7784 1.5554 23.0312 1.39631C23.2869 1.23437 23.5966 1.15341 23.9602 1.15341C24.3295 1.15341 24.6392 1.23437 24.8892 1.39631C25.1392 1.5554 25.3281 1.76847 25.456 2.03551C25.5838 2.29972 25.6477 2.59091 25.6477 2.90909V3.36932C25.6477 3.6875 25.5824 3.98011 25.4517 4.24716C25.3239 4.51136 25.1335 4.72443 24.8807 4.88636C24.6307 5.04545 24.3239 5.125 23.9602 5.125C23.5909 5.125 23.2798 5.04545 23.027 4.88636C22.7741 4.72443 22.5824 4.51136 22.4517 4.24716C22.321 3.98011 22.2557 3.6875 22.2557 3.36932ZM23.125 2.90909V3.36932C23.125 3.63352 23.1875 3.87074 23.3125 4.08097C23.4375 4.28835 23.6534 4.39205 23.9602 4.39205C24.2585 4.39205 24.4688 4.28835 24.5909 4.08097C24.7159 3.87074 24.7784 3.63352 24.7784 3.36932V2.90909C24.7784 2.64489 24.7188 2.40909 24.5994 2.2017C24.4801 1.99148 24.267 1.88636 23.9602 1.88636C23.6619 1.88636 23.4474 1.99148 23.3168 2.2017C23.1889 2.40909 23.125 2.64489 23.125 2.90909ZM22.5795 10L28.5795 1.27273H29.5511L23.5511 10H22.5795Z" fill="#757575"/>
<rect x="48" y="56" width="269" height="1" fill="#DEE3E5"/>
<path d="M10.0629 61.1193C9.7049 61.1136 9.34695 61.0455 8.98899 60.9148C8.63104 60.7841 8.30433 60.5639 8.00888 60.2543C7.71342 59.9418 7.47621 59.5199 7.29723 58.9886C7.11825 58.4545 7.02876 57.7841 7.02876 56.9773C7.02876 56.2045 7.10121 55.5199 7.24609 54.9233C7.39098 54.3239 7.60121 53.8196 7.87678 53.4105C8.15234 52.9986 8.48473 52.6861 8.87393 52.473C9.26598 52.2599 9.70774 52.1534 10.1992 52.1534C10.6879 52.1534 11.1225 52.2514 11.5032 52.4474C11.8867 52.6406 12.1992 52.9105 12.4407 53.2571C12.6822 53.6037 12.8384 54.0028 12.9094 54.4545H11.8697C11.7731 54.0625 11.5856 53.7372 11.3072 53.4787C11.0288 53.2202 10.6594 53.0909 10.1992 53.0909C9.52308 53.0909 8.99041 53.3849 8.60121 53.973C8.21484 54.5611 8.02024 55.3864 8.0174 56.4489H8.08558C8.24467 56.2074 8.43359 56.0014 8.65234 55.831C8.87393 55.6577 9.11825 55.5241 9.3853 55.4304C9.65234 55.3366 9.93501 55.2898 10.2333 55.2898C10.7333 55.2898 11.1907 55.4148 11.6055 55.6648C12.0202 55.9119 12.3526 56.2543 12.6026 56.6918C12.8526 57.1264 12.9776 57.625 12.9776 58.1875C12.9776 58.7273 12.8569 59.2216 12.6154 59.6705C12.3739 60.1165 12.0344 60.4716 11.5969 60.7358C11.1623 60.9972 10.6509 61.125 10.0629 61.1193ZM10.0629 60.1818C10.4208 60.1818 10.7418 60.0923 11.0259 59.9134C11.3129 59.7344 11.5387 59.4943 11.7035 59.1932C11.8711 58.892 11.9549 58.5568 11.9549 58.1875C11.9549 57.8267 11.8739 57.4986 11.712 57.2031C11.5529 56.9048 11.3327 56.6676 11.0515 56.4915C10.7731 56.3153 10.4549 56.2273 10.0969 56.2273C9.82706 56.2273 9.57564 56.2812 9.34268 56.3892C9.10973 56.4943 8.90518 56.6392 8.72905 56.8239C8.55575 57.0085 8.41939 57.2202 8.31996 57.4588C8.22053 57.6946 8.17081 57.9432 8.17081 58.2045C8.17081 58.5511 8.25178 58.875 8.41371 59.1761C8.57848 59.4773 8.80291 59.7202 9.087 59.9048C9.37393 60.0895 9.69922 60.1818 10.0629 60.1818ZM18.8125 53.1761L19.358 53.6193L16.1534 60.1136L15.642 59.6193L18.8125 53.1761ZM17.5 61.1193C16.858 61.1193 16.3111 60.9446 15.8594 60.5952C15.4077 60.2429 15.0625 59.733 14.8239 59.0653C14.5852 58.3949 14.4659 57.5852 14.4659 56.6364C14.4659 55.6932 14.5852 54.8878 14.8239 54.2202C15.0653 53.5497 15.4119 53.0384 15.8636 52.6861C16.3182 52.331 16.8636 52.1534 17.5 52.1534C18.1364 52.1534 18.6804 52.331 19.1321 52.6861C19.5866 53.0384 19.9332 53.5497 20.1719 54.2202C20.4134 54.8878 20.5341 55.6932 20.5341 56.6364C20.5341 57.5852 20.4148 58.3949 20.1761 59.0653C19.9375 59.733 19.5923 60.2429 19.1406 60.5952C18.6889 60.9446 18.142 61.1193 17.5 61.1193ZM17.5 60.1818C18.1364 60.1818 18.6307 59.875 18.983 59.2614C19.3352 58.6477 19.5114 57.7727 19.5114 56.6364C19.5114 55.8807 19.4304 55.2372 19.2685 54.706C19.1094 54.1747 18.8793 53.7699 18.5781 53.4915C18.2798 53.2131 17.9205 53.0739 17.5 53.0739C16.8693 53.0739 16.3764 53.3849 16.0213 54.0071C15.6662 54.6264 15.4886 55.5028 15.4886 56.6364C15.4886 57.392 15.5682 58.0341 15.7273 58.5625C15.8864 59.0909 16.1151 59.4929 16.4134 59.7685C16.7145 60.044 17.0767 60.1818 17.5 60.1818ZM26.6023 59.3636V58.9034C26.6023 58.5852 26.6676 58.294 26.7983 58.0298C26.9318 57.7628 27.125 57.5497 27.3778 57.3906C27.6335 57.2287 27.9432 57.1477 28.3068 57.1477C28.6761 57.1477 28.9858 57.2287 29.2358 57.3906C29.4858 57.5497 29.6747 57.7628 29.8026 58.0298C29.9304 58.294 29.9943 58.5852 29.9943 58.9034V59.3636C29.9943 59.6818 29.929 59.9744 29.7983 60.2415C29.6705 60.5057 29.4801 60.7187 29.2273 60.8807C28.9773 61.0398 28.6705 61.1193 28.3068 61.1193C27.9375 61.1193 27.6264 61.0398 27.3736 60.8807C27.1207 60.7187 26.929 60.5057 26.7983 60.2415C26.6676 59.9744 26.6023 59.6818 26.6023 59.3636ZM27.4716 58.9034V59.3636C27.4716 59.6278 27.5341 59.8651 27.6591 60.0753C27.7841 60.2827 28 60.3864 28.3068 60.3864C28.6051 60.3864 28.8153 60.2827 28.9375 60.0753C29.0625 59.8651 29.125 59.6278 29.125 59.3636V58.9034C29.125 58.6392 29.0653 58.4034 28.946 58.196C28.8267 57.9858 28.6136 57.8807 28.3068 57.8807C28.0085 57.8807 27.794 57.9858 27.6634 58.196C27.5355 58.4034 27.4716 58.6392 27.4716 58.9034ZM22.2557 54.3693V53.9091C22.2557 53.5909 22.321 53.2997 22.4517 53.0355C22.5852 52.7685 22.7784 52.5554 23.0312 52.3963C23.2869 52.2344 23.5966 52.1534 23.9602 52.1534C24.3295 52.1534 24.6392 52.2344 24.8892 52.3963C25.1392 52.5554 25.3281 52.7685 25.456 53.0355C25.5838 53.2997 25.6477 53.5909 25.6477 53.9091V54.3693C25.6477 54.6875 25.5824 54.9801 25.4517 55.2472C25.3239 55.5114 25.1335 55.7244 24.8807 55.8864C24.6307 56.0455 24.3239 56.125 23.9602 56.125C23.5909 56.125 23.2798 56.0455 23.027 55.8864C22.7741 55.7244 22.5824 55.5114 22.4517 55.2472C22.321 54.9801 22.2557 54.6875 22.2557 54.3693ZM23.125 53.9091V54.3693C23.125 54.6335 23.1875 54.8707 23.3125 55.081C23.4375 55.2884 23.6534 55.392 23.9602 55.392C24.2585 55.392 24.4688 55.2884 24.5909 55.081C24.7159 54.8707 24.7784 54.6335 24.7784 54.3693V53.9091C24.7784 53.6449 24.7188 53.4091 24.5994 53.2017C24.4801 52.9915 24.267 52.8864 23.9602 52.8864C23.6619 52.8864 23.4474 52.9915 23.3168 53.2017C23.1889 53.4091 23.125 53.6449 23.125 53.9091ZM22.5795 61L28.5795 52.2727H29.5511L23.5511 61H22.5795Z" fill="#757575"/>
<rect x="48" y="106" width="269" height="1" fill="#DEE3E5"/>
<path d="M7.38778 111V110.233L10.2685 107.08C10.6065 106.71 10.8849 106.389 11.1037 106.116C11.3224 105.841 11.4844 105.582 11.5895 105.341C11.6974 105.097 11.7514 104.841 11.7514 104.574C11.7514 104.267 11.6776 104.001 11.5298 103.777C11.3849 103.553 11.1861 103.379 10.9332 103.257C10.6804 103.135 10.3963 103.074 10.081 103.074C9.74574 103.074 9.45312 103.143 9.20312 103.283C8.95597 103.419 8.7642 103.611 8.62784 103.858C8.49432 104.105 8.42756 104.395 8.42756 104.727H7.42188C7.42188 104.216 7.53977 103.767 7.77557 103.381C8.01136 102.994 8.33239 102.693 8.73864 102.477C9.14773 102.261 9.60653 102.153 10.1151 102.153C10.6264 102.153 11.0795 102.261 11.4744 102.477C11.8693 102.693 12.179 102.984 12.4034 103.351C12.6278 103.717 12.7401 104.125 12.7401 104.574C12.7401 104.895 12.6818 105.209 12.5653 105.516C12.4517 105.82 12.2528 106.159 11.9688 106.534C11.6875 106.906 11.2969 107.361 10.7969 107.898L8.83665 109.994V110.062H12.8935V111H7.38778ZM18.8125 103.176L19.358 103.619L16.1534 110.114L15.642 109.619L18.8125 103.176ZM17.5 111.119C16.858 111.119 16.3111 110.945 15.8594 110.595C15.4077 110.243 15.0625 109.733 14.8239 109.065C14.5852 108.395 14.4659 107.585 14.4659 106.636C14.4659 105.693 14.5852 104.888 14.8239 104.22C15.0653 103.55 15.4119 103.038 15.8636 102.686C16.3182 102.331 16.8636 102.153 17.5 102.153C18.1364 102.153 18.6804 102.331 19.1321 102.686C19.5866 103.038 19.9332 103.55 20.1719 104.22C20.4134 104.888 20.5341 105.693 20.5341 106.636C20.5341 107.585 20.4148 108.395 20.1761 109.065C19.9375 109.733 19.5923 110.243 19.1406 110.595C18.6889 110.945 18.142 111.119 17.5 111.119ZM17.5 110.182C18.1364 110.182 18.6307 109.875 18.983 109.261C19.3352 108.648 19.5114 107.773 19.5114 106.636C19.5114 105.881 19.4304 105.237 19.2685 104.706C19.1094 104.175 18.8793 103.77 18.5781 103.491C18.2798 103.213 17.9205 103.074 17.5 103.074C16.8693 103.074 16.3764 103.385 16.0213 104.007C15.6662 104.626 15.4886 105.503 15.4886 106.636C15.4886 107.392 15.5682 108.034 15.7273 108.562C15.8864 109.091 16.1151 109.493 16.4134 109.768C16.7145 110.044 17.0767 110.182 17.5 110.182ZM26.6023 109.364V108.903C26.6023 108.585 26.6676 108.294 26.7983 108.03C26.9318 107.763 27.125 107.55 27.3778 107.391C27.6335 107.229 27.9432 107.148 28.3068 107.148C28.6761 107.148 28.9858 107.229 29.2358 107.391C29.4858 107.55 29.6747 107.763 29.8026 108.03C29.9304 108.294 29.9943 108.585 29.9943 108.903V109.364C29.9943 109.682 29.929 109.974 29.7983 110.241C29.6705 110.506 29.4801 110.719 29.2273 110.881C28.9773 111.04 28.6705 111.119 28.3068 111.119C27.9375 111.119 27.6264 111.04 27.3736 110.881C27.1207 110.719 26.929 110.506 26.7983 110.241C26.6676 109.974 26.6023 109.682 26.6023 109.364ZM27.4716 108.903V109.364C27.4716 109.628 27.5341 109.865 27.6591 110.075C27.7841 110.283 28 110.386 28.3068 110.386C28.6051 110.386 28.8153 110.283 28.9375 110.075C29.0625 109.865 29.125 109.628 29.125 109.364V108.903C29.125 108.639 29.0653 108.403 28.946 108.196C28.8267 107.986 28.6136 107.881 28.3068 107.881C28.0085 107.881 27.794 107.986 27.6634 108.196C27.5355 108.403 27.4716 108.639 27.4716 108.903ZM22.2557 104.369V103.909C22.2557 103.591 22.321 103.3 22.4517 103.036C22.5852 102.768 22.7784 102.555 23.0312 102.396C23.2869 102.234 23.5966 102.153 23.9602 102.153C24.3295 102.153 24.6392 102.234 24.8892 102.396C25.1392 102.555 25.3281 102.768 25.456 103.036C25.5838 103.3 25.6477 103.591 25.6477 103.909V104.369C25.6477 104.687 25.5824 104.98 25.4517 105.247C25.3239 105.511 25.1335 105.724 24.8807 105.886C24.6307 106.045 24.3239 106.125 23.9602 106.125C23.5909 106.125 23.2798 106.045 23.027 105.886C22.7741 105.724 22.5824 105.511 22.4517 105.247C22.321 104.98 22.2557 104.687 22.2557 104.369ZM23.125 103.909V104.369C23.125 104.634 23.1875 104.871 23.3125 105.081C23.4375 105.288 23.6534 105.392 23.9602 105.392C24.2585 105.392 24.4688 105.288 24.5909 105.081C24.7159 104.871 24.7784 104.634 24.7784 104.369V103.909C24.7784 103.645 24.7188 103.409 24.5994 103.202C24.4801 102.991 24.267 102.886 23.9602 102.886C23.6619 102.886 23.4474 102.991 23.3168 103.202C23.1889 103.409 23.125 103.645 23.125 103.909ZM22.5795 111L28.5795 102.273H29.5511L23.5511 111H22.5795Z" fill="#757575"/>
<rect x="48" y="157" width="269" height="1" fill="#DEE3E5"/>
<path d="M28.5625 154.176L29.108 154.619L25.9034 161.114L25.392 160.619L28.5625 154.176ZM27.25 162.119C26.608 162.119 26.0611 161.945 25.6094 161.595C25.1577 161.243 24.8125 160.733 24.5739 160.065C24.3352 159.395 24.2159 158.585 24.2159 157.636C24.2159 156.693 24.3352 155.888 24.5739 155.22C24.8153 154.55 25.1619 154.038 25.6136 153.686C26.0682 153.331 26.6136 153.153 27.25 153.153C27.8864 153.153 28.4304 153.331 28.8821 153.686C29.3366 154.038 29.6832 154.55 29.9219 155.22C30.1634 155.888 30.2841 156.693 30.2841 157.636C30.2841 158.585 30.1648 159.395 29.9261 160.065C29.6875 160.733 29.3423 161.243 28.8906 161.595C28.4389 161.945 27.892 162.119 27.25 162.119ZM27.25 161.182C27.8864 161.182 28.3807 160.875 28.733 160.261C29.0852 159.648 29.2614 158.773 29.2614 157.636C29.2614 156.881 29.1804 156.237 29.0185 155.706C28.8594 155.175 28.6293 154.77 28.3281 154.491C28.0298 154.213 27.6705 154.074 27.25 154.074C26.6193 154.074 26.1264 154.385 25.7713 155.007C25.4162 155.626 25.2386 156.503 25.2386 157.636C25.2386 158.392 25.3182 159.034 25.4773 159.562C25.6364 160.091 25.8651 160.493 26.1634 160.768C26.4645 161.044 26.8267 161.182 27.25 161.182Z" fill="#757575"/>
<g clip-path="url(#clip0_4371_12330)">
<rect x="66" y="123" width="12" height="34" fill="#2EA1F9"/>
</g>
<g clip-path="url(#clip1_4371_12330)">
<rect x="78" y="131" width="12" height="26" fill="#8FDBC0"/>
</g>
<g clip-path="url(#clip2_4371_12330)">
<rect x="130" y="67" width="12" height="90" fill="#2EA1F9"/>
</g>
<rect x="142" y="88" width="12" height="69" fill="#8FDBC0"/>
<g clip-path="url(#clip3_4371_12330)">
<rect x="194" y="123" width="12" height="34" fill="#2EA1F9"/>
</g>
<g clip-path="url(#clip4_4371_12330)">
<rect x="206" y="131" width="12" height="26" fill="#8FDBC0"/>
</g>
<g clip-path="url(#clip5_4371_12330)">
<rect x="258" y="123" width="12" height="34" fill="#2EA1F9"/>
</g>
<g clip-path="url(#clip6_4371_12330)">
<rect x="270" y="131" width="12" height="26" fill="#8FDBC0"/>
</g>
<line x1="65.5" y1="162" x2="65.5" y2="170" stroke="#757575"/>
<path d="M54.3977 178.273H55.4545V184.511C55.4545 185.068 55.3523 185.541 55.1477 185.93C54.9432 186.32 54.6548 186.615 54.2827 186.817C53.9105 187.018 53.4716 187.119 52.9659 187.119C52.4886 187.119 52.0639 187.033 51.6918 186.859C51.3196 186.683 51.027 186.433 50.8139 186.109C50.6009 185.786 50.4943 185.401 50.4943 184.955H51.5341C51.5341 185.202 51.5952 185.418 51.7173 185.602C51.8423 185.784 52.0128 185.926 52.2287 186.028C52.4446 186.131 52.6903 186.182 52.9659 186.182C53.2699 186.182 53.5284 186.118 53.7415 185.99C53.9545 185.862 54.1165 185.675 54.2273 185.428C54.3409 185.178 54.3977 184.872 54.3977 184.511V178.273ZM59.3622 187.153C58.9474 187.153 58.571 187.075 58.233 186.919C57.8949 186.76 57.6264 186.531 57.4276 186.233C57.2287 185.932 57.1293 185.568 57.1293 185.142C57.1293 184.767 57.2031 184.463 57.3509 184.23C57.4986 183.994 57.696 183.81 57.9432 183.676C58.1903 183.543 58.4631 183.443 58.7614 183.378C59.0625 183.31 59.3651 183.256 59.669 183.216C60.0668 183.165 60.3892 183.126 60.6364 183.101C60.8864 183.072 61.0682 183.026 61.1818 182.96C61.2983 182.895 61.3565 182.781 61.3565 182.619V182.585C61.3565 182.165 61.2415 181.838 61.0114 181.605C60.7841 181.372 60.4389 181.256 59.9759 181.256C59.4957 181.256 59.1193 181.361 58.8466 181.571C58.5739 181.781 58.3821 182.006 58.2713 182.244L57.3168 181.903C57.4872 181.506 57.7145 181.196 57.9986 180.974C58.2855 180.75 58.598 180.594 58.9361 180.506C59.277 180.415 59.6122 180.369 59.9418 180.369C60.152 180.369 60.3935 180.395 60.6662 180.446C60.9418 180.494 61.2074 180.595 61.4631 180.749C61.7216 180.902 61.9361 181.134 62.1065 181.443C62.277 181.753 62.3622 182.168 62.3622 182.688V187H61.3565V186.114H61.3054C61.2372 186.256 61.1236 186.408 60.9645 186.57C60.8054 186.732 60.5938 186.869 60.3295 186.983C60.0653 187.097 59.7429 187.153 59.3622 187.153ZM59.5156 186.25C59.9134 186.25 60.2486 186.172 60.5213 186.016C60.7969 185.859 61.0043 185.658 61.1435 185.411C61.2855 185.163 61.3565 184.903 61.3565 184.631V183.71C61.3139 183.761 61.2202 183.808 61.0753 183.851C60.9332 183.891 60.7685 183.926 60.581 183.957C60.3963 183.986 60.2159 184.011 60.0398 184.034C59.8665 184.054 59.7259 184.071 59.6179 184.085C59.3565 184.119 59.1122 184.175 58.8849 184.251C58.6605 184.325 58.4787 184.437 58.3395 184.588C58.2031 184.736 58.1349 184.937 58.1349 185.193C58.1349 185.543 58.2642 185.807 58.5227 185.986C58.7841 186.162 59.1151 186.25 59.5156 186.25ZM65.2035 183.062V187H64.1978V180.455H65.1694V181.477H65.2546C65.408 181.145 65.641 180.878 65.9535 180.676C66.266 180.472 66.6694 180.369 67.1637 180.369C67.6069 180.369 67.9947 180.46 68.3271 180.642C68.6594 180.821 68.918 181.094 69.1026 181.46C69.2873 181.824 69.3796 182.284 69.3796 182.841V187H68.3739V182.909C68.3739 182.395 68.2404 181.994 67.9734 181.707C67.7063 181.418 67.3398 181.273 66.8739 181.273C66.5529 181.273 66.266 181.342 66.0131 181.482C65.7631 181.621 65.5657 181.824 65.4208 182.091C65.2759 182.358 65.2035 182.682 65.2035 183.062ZM77.6435 178.273V187H76.5866V179.381H76.5355L74.4048 180.795V179.722L76.5866 178.273H77.6435Z" fill="#757575"/>
<line x1="132.777" y1="162" x2="132.777" y2="170" stroke="#757575"/>
<path d="M121.175 178.273H122.232V184.511C122.232 185.068 122.13 185.541 121.925 185.93C121.721 186.32 121.432 186.615 121.06 186.817C120.688 187.018 120.249 187.119 119.743 187.119C119.266 187.119 118.841 187.033 118.469 186.859C118.097 186.683 117.804 186.433 117.591 186.109C117.378 185.786 117.272 185.401 117.272 184.955H118.311C118.311 185.202 118.373 185.418 118.495 185.602C118.62 185.784 118.79 185.926 119.006 186.028C119.222 186.131 119.468 186.182 119.743 186.182C120.047 186.182 120.306 186.118 120.519 185.99C120.732 185.862 120.894 185.675 121.005 185.428C121.118 185.178 121.175 184.872 121.175 184.511V178.273ZM126.14 187.153C125.725 187.153 125.348 187.075 125.01 186.919C124.672 186.76 124.404 186.531 124.205 186.233C124.006 185.932 123.907 185.568 123.907 185.142C123.907 184.767 123.98 184.463 124.128 184.23C124.276 183.994 124.473 183.81 124.721 183.676C124.968 183.543 125.24 183.443 125.539 183.378C125.84 183.31 126.142 183.256 126.446 183.216C126.844 183.165 127.167 183.126 127.414 183.101C127.664 183.072 127.846 183.026 127.959 182.96C128.076 182.895 128.134 182.781 128.134 182.619V182.585C128.134 182.165 128.019 181.838 127.789 181.605C127.561 181.372 127.216 181.256 126.753 181.256C126.273 181.256 125.897 181.361 125.624 181.571C125.351 181.781 125.159 182.006 125.049 182.244L124.094 181.903C124.265 181.506 124.492 181.196 124.776 180.974C125.063 180.75 125.375 180.594 125.713 180.506C126.054 180.415 126.39 180.369 126.719 180.369C126.929 180.369 127.171 180.395 127.444 180.446C127.719 180.494 127.985 180.595 128.24 180.749C128.499 180.902 128.713 181.134 128.884 181.443C129.054 181.753 129.14 182.168 129.14 182.688V187H128.134V186.114H128.083C128.015 186.256 127.901 186.408 127.742 186.57C127.583 186.732 127.371 186.869 127.107 186.983C126.843 187.097 126.52 187.153 126.14 187.153ZM126.293 186.25C126.691 186.25 127.026 186.172 127.299 186.016C127.574 185.859 127.782 185.658 127.921 185.411C128.063 185.163 128.134 184.903 128.134 184.631V183.71C128.091 183.761 127.998 183.808 127.853 183.851C127.711 183.891 127.546 183.926 127.358 183.957C127.174 183.986 126.993 184.011 126.817 184.034C126.644 184.054 126.503 184.071 126.395 184.085C126.134 184.119 125.89 184.175 125.662 184.251C125.438 184.325 125.256 184.437 125.117 184.588C124.98 184.736 124.912 184.937 124.912 185.193C124.912 185.543 125.042 185.807 125.3 185.986C125.561 186.162 125.892 186.25 126.293 186.25ZM131.981 183.062V187H130.975V180.455H131.947V181.477H132.032C132.185 181.145 132.418 180.878 132.731 180.676C133.043 180.472 133.447 180.369 133.941 180.369C134.384 180.369 134.772 180.46 135.104 180.642C135.437 180.821 135.695 181.094 135.88 181.46C136.065 181.824 136.157 182.284 136.157 182.841V187H135.151V182.909C135.151 182.395 135.018 181.994 134.751 181.707C134.484 181.418 134.117 181.273 133.651 181.273C133.33 181.273 133.043 181.342 132.79 181.482C132.54 181.621 132.343 181.824 132.198 182.091C132.053 182.358 131.981 182.682 131.981 183.062ZM141.625 187L145.529 179.278V179.21H141.029V178.273H146.62V179.261L142.733 187H141.625Z" fill="#757575"/>
<line x1="203.555" y1="162" x2="203.555" y2="170" stroke="#757575"/>
<path d="M188.952 178.273H190.009V184.511C190.009 185.068 189.907 185.541 189.702 185.93C189.498 186.32 189.21 186.615 188.837 186.817C188.465 187.018 188.026 187.119 187.521 187.119C187.043 187.119 186.619 187.033 186.246 186.859C185.874 186.683 185.582 186.433 185.369 186.109C185.156 185.786 185.049 185.401 185.049 184.955H186.089C186.089 185.202 186.15 185.418 186.272 185.602C186.397 185.784 186.567 185.926 186.783 186.028C186.999 186.131 187.245 186.182 187.521 186.182C187.825 186.182 188.083 186.118 188.296 185.99C188.509 185.862 188.671 185.675 188.782 185.428C188.896 185.178 188.952 184.872 188.952 184.511V178.273ZM193.917 187.153C193.502 187.153 193.126 187.075 192.788 186.919C192.45 186.76 192.181 186.531 191.982 186.233C191.783 185.932 191.684 185.568 191.684 185.142C191.684 184.767 191.758 184.463 191.906 184.23C192.053 183.994 192.251 183.81 192.498 183.676C192.745 183.543 193.018 183.443 193.316 183.378C193.617 183.31 193.92 183.256 194.224 183.216C194.621 183.165 194.944 183.126 195.191 183.101C195.441 183.072 195.623 183.026 195.737 182.96C195.853 182.895 195.911 182.781 195.911 182.619V182.585C195.911 182.165 195.796 181.838 195.566 181.605C195.339 181.372 194.994 181.256 194.531 181.256C194.05 181.256 193.674 181.361 193.401 181.571C193.129 181.781 192.937 182.006 192.826 182.244L191.871 181.903C192.042 181.506 192.269 181.196 192.553 180.974C192.84 180.75 193.153 180.594 193.491 180.506C193.832 180.415 194.167 180.369 194.496 180.369C194.707 180.369 194.948 180.395 195.221 180.446C195.496 180.494 195.762 180.595 196.018 180.749C196.276 180.902 196.491 181.134 196.661 181.443C196.832 181.753 196.917 182.168 196.917 182.688V187H195.911V186.114H195.86C195.792 186.256 195.678 186.408 195.519 186.57C195.36 186.732 195.148 186.869 194.884 186.983C194.62 187.097 194.298 187.153 193.917 187.153ZM194.07 186.25C194.468 186.25 194.803 186.172 195.076 186.016C195.352 185.859 195.559 185.658 195.698 185.411C195.84 185.163 195.911 184.903 195.911 184.631V183.71C195.869 183.761 195.775 183.808 195.63 183.851C195.488 183.891 195.323 183.926 195.136 183.957C194.951 183.986 194.771 184.011 194.594 184.034C194.421 184.054 194.281 184.071 194.173 184.085C193.911 184.119 193.667 184.175 193.44 184.251C193.215 184.325 193.033 184.437 192.894 184.588C192.758 184.736 192.69 184.937 192.69 185.193C192.69 185.543 192.819 185.807 193.077 185.986C193.339 186.162 193.67 186.25 194.07 186.25ZM199.758 183.062V187H198.752V180.455H199.724V181.477H199.809C199.963 181.145 200.196 180.878 200.508 180.676C200.821 180.472 201.224 180.369 201.718 180.369C202.162 180.369 202.549 180.46 202.882 180.642C203.214 180.821 203.473 181.094 203.657 181.46C203.842 181.824 203.934 182.284 203.934 182.841V187H202.929V182.909C202.929 182.395 202.795 181.994 202.528 181.707C202.261 181.418 201.895 181.273 201.429 181.273C201.108 181.273 200.821 181.342 200.568 181.482C200.318 181.621 200.12 181.824 199.975 182.091C199.831 182.358 199.758 182.682 199.758 183.062ZM212.198 178.273V187H211.141V179.381H211.09L208.96 180.795V179.722L211.141 178.273H212.198ZM214.504 185.21V184.341L218.339 178.273H218.969V179.619H218.543L215.646 184.205V184.273H220.81V185.21H214.504ZM218.612 187V184.946V184.541V178.273H219.617V187H218.612Z" fill="#757575"/>
<line x1="278.334" y1="162" x2="278.334" y2="170" stroke="#757575"/>
<path d="M262.732 178.273H263.789V184.511C263.789 185.068 263.686 185.541 263.482 185.93C263.277 186.32 262.989 186.615 262.617 186.817C262.244 187.018 261.806 187.119 261.3 187.119C260.823 187.119 260.398 187.033 260.026 186.859C259.654 186.683 259.361 186.433 259.148 186.109C258.935 185.786 258.828 185.401 258.828 184.955H259.868C259.868 185.202 259.929 185.418 260.051 185.602C260.176 185.784 260.347 185.926 260.563 186.028C260.779 186.131 261.024 186.182 261.3 186.182C261.604 186.182 261.862 186.118 262.075 185.99C262.289 185.862 262.45 185.675 262.561 185.428C262.675 185.178 262.732 184.872 262.732 184.511V178.273ZM267.696 187.153C267.281 187.153 266.905 187.075 266.567 186.919C266.229 186.76 265.96 186.531 265.762 186.233C265.563 185.932 265.463 185.568 265.463 185.142C265.463 184.767 265.537 184.463 265.685 184.23C265.833 183.994 266.03 183.81 266.277 183.676C266.524 183.543 266.797 183.443 267.095 183.378C267.396 183.31 267.699 183.256 268.003 183.216C268.401 183.165 268.723 183.126 268.97 183.101C269.22 183.072 269.402 183.026 269.516 182.96C269.632 182.895 269.691 182.781 269.691 182.619V182.585C269.691 182.165 269.575 181.838 269.345 181.605C269.118 181.372 268.773 181.256 268.31 181.256C267.83 181.256 267.453 181.361 267.181 181.571C266.908 181.781 266.716 182.006 266.605 182.244L265.651 181.903C265.821 181.506 266.048 181.196 266.333 180.974C266.619 180.75 266.932 180.594 267.27 180.506C267.611 180.415 267.946 180.369 268.276 180.369C268.486 180.369 268.727 180.395 269 180.446C269.276 180.494 269.541 180.595 269.797 180.749C270.056 180.902 270.27 181.134 270.441 181.443C270.611 181.753 270.696 182.168 270.696 182.688V187H269.691V186.114H269.639C269.571 186.256 269.458 186.408 269.298 186.57C269.139 186.732 268.928 186.869 268.664 186.983C268.399 187.097 268.077 187.153 267.696 187.153ZM267.85 186.25C268.247 186.25 268.583 186.172 268.855 186.016C269.131 185.859 269.338 185.658 269.477 185.411C269.619 185.163 269.691 184.903 269.691 184.631V183.71C269.648 183.761 269.554 183.808 269.409 183.851C269.267 183.891 269.102 183.926 268.915 183.957C268.73 183.986 268.55 184.011 268.374 184.034C268.2 184.054 268.06 184.071 267.952 184.085C267.691 184.119 267.446 184.175 267.219 184.251C266.994 184.325 266.813 184.437 266.673 184.588C266.537 184.736 266.469 184.937 266.469 185.193C266.469 185.543 266.598 185.807 266.857 185.986C267.118 186.162 267.449 186.25 267.85 186.25ZM273.537 183.062V187H272.532V180.455H273.503V181.477H273.589C273.742 181.145 273.975 180.878 274.287 180.676C274.6 180.472 275.003 180.369 275.498 180.369C275.941 180.369 276.329 180.46 276.661 180.642C276.993 180.821 277.252 181.094 277.437 181.46C277.621 181.824 277.714 182.284 277.714 182.841V187H276.708V182.909C276.708 182.395 276.574 181.994 276.307 181.707C276.04 181.418 275.674 181.273 275.208 181.273C274.887 181.273 274.6 181.342 274.347 181.482C274.097 181.621 273.9 181.824 273.755 182.091C273.61 182.358 273.537 182.682 273.537 183.062ZM282.909 187V186.233L285.79 183.08C286.128 182.71 286.406 182.389 286.625 182.116C286.844 181.841 287.006 181.582 287.111 181.341C287.219 181.097 287.273 180.841 287.273 180.574C287.273 180.267 287.199 180.001 287.051 179.777C286.906 179.553 286.708 179.379 286.455 179.257C286.202 179.135 285.918 179.074 285.602 179.074C285.267 179.074 284.975 179.143 284.725 179.283C284.477 179.419 284.286 179.611 284.149 179.858C284.016 180.105 283.949 180.395 283.949 180.727H282.943C282.943 180.216 283.061 179.767 283.297 179.381C283.533 178.994 283.854 178.693 284.26 178.477C284.669 178.261 285.128 178.153 285.637 178.153C286.148 178.153 286.601 178.261 286.996 178.477C287.391 178.693 287.7 178.984 287.925 179.351C288.149 179.717 288.262 180.125 288.262 180.574C288.262 180.895 288.203 181.209 288.087 181.516C287.973 181.82 287.774 182.159 287.49 182.534C287.209 182.906 286.818 183.361 286.318 183.898L284.358 185.994V186.062H288.415V187H282.909ZM292.97 187.119C292.385 187.119 291.868 187.016 291.419 186.808C290.973 186.598 290.625 186.31 290.375 185.943C290.125 185.574 290.002 185.153 290.004 184.682C290.002 184.312 290.074 183.972 290.222 183.659C290.369 183.344 290.571 183.081 290.827 182.871C291.085 182.658 291.374 182.523 291.692 182.466V182.415C291.274 182.307 290.942 182.072 290.695 181.712C290.448 181.348 290.325 180.935 290.328 180.472C290.325 180.028 290.438 179.632 290.665 179.283C290.892 178.933 291.205 178.658 291.602 178.456C292.003 178.254 292.459 178.153 292.97 178.153C293.476 178.153 293.928 178.254 294.325 178.456C294.723 178.658 295.036 178.933 295.263 179.283C295.493 179.632 295.61 180.028 295.612 180.472C295.61 180.935 295.483 181.348 295.233 181.712C294.986 182.072 294.658 182.307 294.249 182.415V182.466C294.564 182.523 294.848 182.658 295.101 182.871C295.354 183.081 295.556 183.344 295.706 183.659C295.857 183.972 295.933 184.312 295.936 184.682C295.933 185.153 295.806 185.574 295.553 185.943C295.303 186.31 294.955 186.598 294.509 186.808C294.066 187.016 293.553 187.119 292.97 187.119ZM292.97 186.182C293.365 186.182 293.706 186.118 293.993 185.99C294.28 185.862 294.502 185.682 294.658 185.449C294.814 185.216 294.894 184.943 294.896 184.631C294.894 184.301 294.808 184.01 294.641 183.757C294.473 183.504 294.244 183.305 293.955 183.161C293.668 183.016 293.34 182.943 292.97 182.943C292.598 182.943 292.266 183.016 291.973 183.161C291.683 183.305 291.455 183.504 291.287 183.757C291.122 184.01 291.041 184.301 291.044 184.631C291.041 184.943 291.117 185.216 291.27 185.449C291.426 185.682 291.649 185.862 291.939 185.99C292.229 186.118 292.573 186.182 292.97 186.182ZM292.97 182.04C293.283 182.04 293.56 181.977 293.801 181.852C294.046 181.727 294.237 181.553 294.377 181.328C294.516 181.104 294.587 180.841 294.59 180.54C294.587 180.244 294.517 179.987 294.381 179.768C294.244 179.547 294.056 179.376 293.814 179.257C293.573 179.135 293.291 179.074 292.97 179.074C292.644 179.074 292.358 179.135 292.114 179.257C291.869 179.376 291.681 179.547 291.547 179.768C291.414 179.987 291.348 180.244 291.351 180.54C291.348 180.841 291.415 181.104 291.551 181.328C291.691 181.553 291.882 181.727 292.127 181.852C292.371 181.977 292.652 182.04 292.97 182.04Z" fill="#757575"/>
<defs>
<clipPath id="clip0_4371_12330">
<rect width="12" height="34" fill="white" transform="translate(66 123)"/>
</clipPath>
<clipPath id="clip1_4371_12330">
<rect width="12" height="26" fill="white" transform="translate(78 131)"/>
</clipPath>
<clipPath id="clip2_4371_12330">
<rect width="12" height="90" fill="white" transform="translate(130 67)"/>
</clipPath>
<clipPath id="clip3_4371_12330">
<rect width="12" height="34" fill="white" transform="translate(194 123)"/>
</clipPath>
<clipPath id="clip4_4371_12330">
<rect width="12" height="26" fill="white" transform="translate(206 131)"/>
</clipPath>
<clipPath id="clip5_4371_12330">
<rect width="12" height="34" fill="white" transform="translate(258 123)"/>
</clipPath>
<clipPath id="clip6_4371_12330">
<rect width="12" height="26" fill="white" transform="translate(270 131)"/>
</clipPath>
</defs>
</svg>
