<svg width="24" height="24" viewBox="0 0 24 24" fill="none" xmlns="http://www.w3.org/2000/svg">
<path fill-rule="evenodd" clip-rule="evenodd" d="M2 6C2 5.44772 2.44772 5 3 5H21C21.5523 5 22 5.44772 22 6C22 6.55229 21.5523 7 21 7H3C2.44772 7 2 6.55229 2 6Z" fill="#616161"/>
<path fill-rule="evenodd" clip-rule="evenodd" d="M10 3C9.44772 3 9 3.44772 9 4V6C9 6.55228 8.55228 7 8 7C7.44772 7 7 6.55228 7 6V4C7 2.34315 8.34315 1 10 1H14C15.6569 1 17 2.34315 17 4V6C17 6.55228 16.5523 7 16 7C15.4477 7 15 6.55228 15 6V4C15 3.44772 14.5523 3 14 3H10ZM5 5C5.55228 5 6 5.44772 6 6V20C6 20.5523 6.44772 21 7 21H17C17.5523 21 18 20.5523 18 20V6C18 5.44772 18.4477 5 19 5C19.5523 5 20 5.44772 20 6V20C20 21.6569 18.6569 23 17 23H7C5.34315 23 4 21.6569 4 20V6C4 5.44772 4.44772 5 5 5Z" fill="#616161"/>
<path fill-rule="evenodd" clip-rule="evenodd" d="M10 10C10.5523 10 11 10.4477 11 11V17C11 17.5523 10.5523 18 10 18C9.44772 18 9 17.5523 9 17V11C9 10.4477 9.44772 10 10 10Z" fill="#616161"/>
<path fill-rule="evenodd" clip-rule="evenodd" d="M14 10C14.5523 10 15 10.4477 15 11V17C15 17.5523 14.5523 18 14 18C13.4477 18 13 17.5523 13 17V11C13 10.4477 13.4477 10 14 10Z" fill="#616161"/>
</svg>
