<svg width="18" height="18" viewBox="0 0 18 18" fill="none" xmlns="http://www.w3.org/2000/svg">
<path fill-rule="evenodd" clip-rule="evenodd" d="M9 15.75C9.41421 15.75 9.75 15.4142 9.75 15L9.75 3C9.75 2.58579 9.41421 2.25 9 2.25C8.58579 2.25 8.25 2.58579 8.25 3L8.25 15C8.25 15.4142 8.58579 15.75 9 15.75Z" fill="#FD445F"/>
<path fill-rule="evenodd" clip-rule="evenodd" d="M14.0303 9.96967C13.7374 9.67678 13.2626 9.67678 12.9697 9.96967L9 13.9393L5.03033 9.96967C4.73744 9.67678 4.26256 9.67678 3.96967 9.96967C3.67678 10.2626 3.67678 10.7374 3.96967 11.0303L8.46967 15.5303C8.76256 15.8232 9.23744 15.8232 9.53033 15.5303L14.0303 11.0303C14.3232 10.7374 14.3232 10.2626 14.0303 9.96967Z" fill="#FD445F"/>
</svg>
