<svg width="16" height="16" viewBox="0 0 16 16" fill="none" xmlns="http://www.w3.org/2000/svg">
<path fill-rule="evenodd" clip-rule="evenodd" d="M8.17218 5.34972C7.53138 5.23981 6.90474 5.60809 6.68899 6.22141C6.56681 6.56873 6.18619 6.75125 5.83887 6.62907C5.49154 6.50689 5.30903 6.12628 5.43121 5.77895C5.86271 4.55232 7.11599 3.81576 8.39759 4.03558C9.67905 4.25539 10.6152 5.36731 10.6134 6.66745C10.6131 7.68769 9.85672 8.36144 9.31656 8.72155C9.02614 8.91516 8.74047 9.05752 8.53002 9.15105C8.42385 9.19824 8.33445 9.23405 8.27003 9.25859C8.23777 9.27088 8.21161 9.28041 8.19256 9.28718L8.16941 9.29529L8.16204 9.2978L8.15944 9.29868L8.15842 9.29902C8.15822 9.29909 8.15758 9.2993 7.94676 8.66685L8.15758 9.2993C7.80829 9.41573 7.43074 9.22696 7.31431 8.87766C7.19795 8.5286 7.3864 8.15133 7.73524 8.03462C7.73528 8.03461 7.7352 8.03464 7.73524 8.03462L7.73439 8.03491C7.73434 8.03493 7.73439 8.03492 7.73524 8.03462L7.74589 8.03089C7.75614 8.02724 7.77295 8.02115 7.79537 8.0126C7.84033 7.99548 7.90717 7.96879 7.98851 7.93264C8.15306 7.8595 8.36739 7.75186 8.57696 7.61215C9.0367 7.30566 9.2801 6.9796 9.2801 6.66685L9.2801 6.66585C9.28107 6.0157 8.81297 5.45964 8.17218 5.34972Z" fill="#616161"/>
<path fill-rule="evenodd" clip-rule="evenodd" d="M0.666626 8.00033C0.666626 3.95024 3.94987 0.666992 7.99996 0.666992C12.05 0.666992 15.3333 3.95024 15.3333 8.00033C15.3333 12.0504 12.05 15.3337 7.99996 15.3337C3.94987 15.3337 0.666626 12.0504 0.666626 8.00033ZM7.99996 2.00033C4.68625 2.00033 1.99996 4.68662 1.99996 8.00033C1.99996 11.314 4.68625 14.0003 7.99996 14.0003C11.3137 14.0003 14 11.314 14 8.00033C14 4.68662 11.3137 2.00033 7.99996 2.00033Z" fill="#616161"/>
<path d="M8.66683 11.3334C8.66683 11.7016 8.36835 12.0001 8.00016 12.0001C7.63197 12.0001 7.3335 11.7016 7.3335 11.3334C7.3335 10.9652 7.63197 10.6667 8.00016 10.6667C8.36835 10.6667 8.66683 10.9652 8.66683 11.3334Z" fill="#616161"/>
</svg>
