<svg width="22" height="22" viewBox="0 0 22 22" fill="none" xmlns="http://www.w3.org/2000/svg">
<path fill-rule="evenodd" clip-rule="evenodd" d="M11.2297 7.4663C10.3753 7.31975 9.53973 7.81079 9.25206 8.62854C9.08916 9.09165 8.58167 9.335 8.11857 9.17209C7.65547 9.00918 7.41212 8.5017 7.57503 8.0386C8.15036 6.4031 9.82141 5.42101 11.5302 5.71411C13.2388 6.00719 14.487 7.48975 14.4847 9.22327C14.4843 10.5836 13.4757 11.4819 12.7555 11.9621C12.3683 12.2202 11.9874 12.41 11.7068 12.5347C11.5652 12.5977 11.446 12.6454 11.3601 12.6781C11.3171 12.6945 11.2822 12.7072 11.2568 12.7162L11.226 12.727L11.2161 12.7304L11.2127 12.7316L11.2113 12.732C11.211 12.7321 11.2102 12.7324 10.9291 11.8891L11.2102 12.7324C10.7445 12.8876 10.2411 12.6359 10.0858 12.1702C9.93069 11.7048 10.1819 11.2018 10.6471 11.0462C10.6471 11.0461 10.647 11.0462 10.6471 11.0462L10.6459 11.0465C10.6459 11.0466 10.6459 11.0466 10.6471 11.0462L10.6613 11.0412C10.6749 11.0363 10.6973 11.0282 10.7272 11.0168C10.7872 10.994 10.8763 10.9584 10.9848 10.9102C11.2042 10.8127 11.4899 10.6692 11.7694 10.4829C12.3823 10.0742 12.7069 9.63947 12.7069 9.22246L12.7069 9.22114C12.7082 8.35426 12.084 7.61285 11.2297 7.4663Z" fill="white"/>
<path fill-rule="evenodd" clip-rule="evenodd" d="M1.22266 11.0004C1.22266 5.60032 5.60032 1.22266 11.0004 1.22266C16.4006 1.22266 20.7782 5.60032 20.7782 11.0004C20.7782 16.4006 16.4006 20.7782 11.0004 20.7782C5.60032 20.7782 1.22266 16.4006 1.22266 11.0004ZM11.0004 3.00043C6.58216 3.00043 3.00043 6.58216 3.00043 11.0004C3.00043 15.4187 6.58216 19.0004 11.0004 19.0004C15.4187 19.0004 19.0004 15.4187 19.0004 11.0004C19.0004 6.58216 15.4187 3.00043 11.0004 3.00043Z" fill="white"/>
<path d="M11.8891 15.4446C11.8891 15.9355 11.4911 16.3334 11.0002 16.3334C10.5093 16.3334 10.1113 15.9355 10.1113 15.4446C10.1113 14.9536 10.5093 14.5557 11.0002 14.5557C11.4911 14.5557 11.8891 14.9536 11.8891 15.4446Z" fill="white"/>
</svg>
