<svg width="14" height="14" viewBox="0 0 14 14" fill="none" xmlns="http://www.w3.org/2000/svg">
<path fill-rule="evenodd" clip-rule="evenodd" d="M0.777649 6.06665C0.777649 3.14565 3.14556 0.77771 6.06653 0.77771C8.98749 0.77771 11.3554 3.14565 11.3554 6.06665C11.3554 8.98765 8.98749 11.3556 6.06653 11.3556C3.14556 11.3556 0.777649 8.98765 0.777649 6.06665ZM6.06653 2.02217C3.83285 2.02217 2.02209 3.83294 2.02209 6.06665C2.02209 8.30036 3.83285 10.1111 6.06653 10.1111C8.30021 10.1111 10.111 8.30036 10.111 6.06665C10.111 3.83294 8.30021 2.02217 6.06653 2.02217Z" fill="#757575"/>
<path fill-rule="evenodd" clip-rule="evenodd" d="M8.92435 8.92436C9.16734 8.68136 9.56131 8.68136 9.8043 8.92436L13.0399 12.1599C13.2828 12.4029 13.2828 12.7969 13.0399 13.0399C12.7969 13.2829 12.4029 13.2829 12.1599 13.0399L8.92435 9.80432C8.68136 9.56133 8.68136 9.16735 8.92435 8.92436Z" fill="#757575"/>
</svg>
