<svg width="24" height="24" viewBox="0 0 24 24" fill="none" xmlns="http://www.w3.org/2000/svg">
<path fill-rule="evenodd" clip-rule="evenodd" d="M4.24305 4.60588C3.71194 4.60588 3.27336 5.04446 3.27336 5.57557V17.2118C3.27336 17.743 3.71194 18.1815 4.24305 18.1815H19.7581C20.2892 18.1815 20.7278 17.743 20.7278 17.2118V5.57557C20.7278 5.04446 20.2892 4.60588 19.7581 4.60588H4.24305ZM1.33398 5.57557C1.33398 3.97337 2.64085 2.6665 4.24305 2.6665H19.7581C21.3603 2.6665 22.6671 3.97337 22.6671 5.57557V17.2118C22.6671 18.814 21.3603 20.1209 19.7581 20.1209H4.24305C2.64085 20.1209 1.33398 18.814 1.33398 17.2118V5.57557Z" fill="white"/>
<path fill-rule="evenodd" clip-rule="evenodd" d="M1.50936 5.01916C1.81647 4.58043 2.4211 4.47373 2.85984 4.78084L12.0007 11.1794L21.1415 4.78084C21.5802 4.47373 22.1848 4.58043 22.4919 5.01916C22.7991 5.4579 22.6924 6.06253 22.2536 6.36964L12.5567 13.1575C12.2228 13.3912 11.7785 13.3912 11.4446 13.1575L1.74768 6.36964C1.30894 6.06253 1.20224 5.4579 1.50936 5.01916Z" fill="white"/>
</svg>
