<svg width="18" height="18" viewBox="0 0 18 18" fill="none" xmlns="http://www.w3.org/2000/svg">
<path d="M3.75 9C3.55109 9 3.36032 9.07902 3.21967 9.21967C3.07902 9.36032 3 9.55109 3 9.75V15.75C3 15.9489 3.07902 16.1397 3.21967 16.2803C3.36032 16.421 3.55109 16.5 3.75 16.5C3.94891 16.5 4.13968 16.421 4.28033 16.2803C4.42098 16.1397 4.5 15.9489 4.5 15.75V9.75C4.5 9.55109 4.42098 9.36032 4.28033 9.21967C4.13968 9.07902 3.94891 9 3.75 9ZM7.5 1.5C7.30109 1.5 7.11032 1.57902 6.96967 1.71967C6.82902 1.86032 6.75 2.05109 6.75 2.25V15.75C6.75 15.9489 6.82902 16.1397 6.96967 16.2803C7.11032 16.421 7.30109 16.5 7.5 16.5C7.69891 16.5 7.88968 16.421 8.03033 16.2803C8.17098 16.1397 8.25 15.9489 8.25 15.75V2.25C8.25 2.05109 8.17098 1.86032 8.03033 1.71967C7.88968 1.57902 7.69891 1.5 7.5 1.5ZM15 12C14.8011 12 14.6103 12.079 14.4697 12.2197C14.329 12.3603 14.25 12.5511 14.25 12.75V15.75C14.25 15.9489 14.329 16.1397 14.4697 16.2803C14.6103 16.421 14.8011 16.5 15 16.5C15.1989 16.5 15.3897 16.421 15.5303 16.2803C15.671 16.1397 15.75 15.9489 15.75 15.75V12.75C15.75 12.5511 15.671 12.3603 15.5303 12.2197C15.3897 12.079 15.1989 12 15 12ZM11.25 6C11.0511 6 10.8603 6.07902 10.7197 6.21967C10.579 6.36032 10.5 6.55109 10.5 6.75V15.75C10.5 15.9489 10.579 16.1397 10.7197 16.2803C10.8603 16.421 11.0511 16.5 11.25 16.5C11.4489 16.5 11.6397 16.421 11.7803 16.2803C11.921 16.1397 12 15.9489 12 15.75V6.75C12 6.55109 11.921 6.36032 11.7803 6.21967C11.6397 6.07902 11.4489 6 11.25 6Z" fill="#3575D5"/>
</svg>
