<svg width="18" height="18" viewBox="0 0 18 18" fill="none" xmlns="http://www.w3.org/2000/svg">
<path fill-rule="evenodd" clip-rule="evenodd" d="M9 2.25C9.41421 2.25 9.75 2.58579 9.75 3L9.75 15C9.75 15.4142 9.41421 15.75 9 15.75C8.58579 15.75 8.25 15.4142 8.25 15L8.25 3C8.25 2.58579 8.58579 2.25 9 2.25Z" fill="#18A558"/>
<path fill-rule="evenodd" clip-rule="evenodd" d="M14.0303 8.03033C13.7374 8.32322 13.2626 8.32322 12.9697 8.03033L9 4.06066L5.03033 8.03033C4.73744 8.32322 4.26256 8.32322 3.96967 8.03033C3.67678 7.73744 3.67678 7.26256 3.96967 6.96967L8.46967 2.46967C8.76256 2.17678 9.23744 2.17678 9.53033 2.46967L14.0303 6.96967C14.3232 7.26256 14.3232 7.73744 14.0303 8.03033Z" fill="#18A558"/>
</svg>
